<svg xmlns="http://www.w3.org/2000/svg" width="230.31999999999996" height="35" viewBox="0 0 230.31999999999996 35"><rect class="svg__rect" x="0" y="0" width="98.53999999999999" height="35" fill="#EE5622"/><rect class="svg__rect" x="96.53999999999999" y="0" width="133.77999999999997" height="35" fill="#ECA72C"/><path class="svg__text" d="M13.95 18.19L13.95 18.19L13.95 17.39Q13.95 16.19 14.38 15.27Q14.80 14.35 15.60 13.85Q16.40 13.35 17.45 13.35L17.45 13.35Q18.86 13.35 19.73 14.12Q20.59 14.89 20.73 16.29L20.73 16.29L19.25 16.29Q19.14 15.37 18.71 14.96Q18.28 14.55 17.45 14.55L17.45 14.55Q16.48 14.55 15.97 15.26Q15.45 15.96 15.44 17.33L15.44 17.33L15.44 18.09Q15.44 19.47 15.93 20.20Q16.43 20.92 17.38 20.92L17.38 20.92Q18.25 20.92 18.69 20.53Q19.13 20.14 19.25 19.22L19.25 19.22L20.73 19.22Q20.60 20.59 19.72 21.35Q18.84 22.12 17.38 22.12L17.38 22.12Q16.36 22.12 15.59 21.63Q14.81 21.15 14.39 20.26Q13.97 19.37 13.95 18.19ZM24.77 18.00L24.77 18.00L24.77 17.52Q24.77 16.28 25.21 15.32Q25.65 14.37 26.46 13.86Q27.27 13.35 28.31 13.35Q29.35 13.35 30.16 13.85Q30.96 14.35 31.40 15.29Q31.84 16.23 31.85 17.48L31.85 17.48L31.85 17.96Q31.85 19.21 31.41 20.16Q30.98 21.10 30.18 21.61Q29.37 22.12 28.32 22.12L28.32 22.12Q27.28 22.12 26.47 21.61Q25.66 21.10 25.22 20.17Q24.78 19.23 24.77 18.00ZM26.25 17.46L26.25 17.96Q26.25 19.36 26.80 20.13Q27.35 20.90 28.32 20.90L28.32 20.90Q29.31 20.90 29.84 20.15Q30.37 19.40 30.37 17.96L30.37 17.96L30.37 17.51Q30.37 16.09 29.83 15.34Q29.29 14.58 28.31 14.58L28.31 14.58Q27.35 14.58 26.81 15.33Q26.26 16.09 26.25 17.46L26.25 17.46ZM37.80 22L36.31 22L36.31 13.47L37.80 13.47L41.61 19.54L41.61 13.47L43.08 13.47L43.08 22L41.60 22L37.80 15.95L37.80 22ZM49.50 14.66L46.87 14.66L46.87 13.47L53.63 13.47L53.63 14.66L50.97 14.66L50.97 22L49.50 22L49.50 14.66ZM58.87 22L57.39 22L57.39 13.47L60.39 13.47Q61.87 13.47 62.67 14.13Q63.47 14.79 63.47 16.05L63.47 16.05Q63.47 16.90 63.06 17.48Q62.64 18.06 61.91 18.37L61.91 18.37L63.82 21.92L63.82 22L62.23 22L60.52 18.71L58.87 18.71L58.87 22ZM58.87 14.66L58.87 17.52L60.39 17.52Q61.14 17.52 61.57 17.15Q61.99 16.77 61.99 16.11L61.99 16.11Q61.99 15.43 61.60 15.05Q61.21 14.68 60.44 14.66L60.44 14.66L58.87 14.66ZM67.60 18.00L67.60 18.00L67.60 17.52Q67.60 16.28 68.04 15.32Q68.48 14.37 69.29 13.86Q70.09 13.35 71.14 13.35Q72.18 13.35 72.98 13.85Q73.79 14.35 74.23 15.29Q74.67 16.23 74.67 17.48L74.67 17.48L74.67 17.96Q74.67 19.21 74.24 20.16Q73.81 21.10 73.00 21.61Q72.20 22.12 71.15 22.12L71.15 22.12Q70.11 22.12 69.30 21.61Q68.49 21.10 68.04 20.17Q67.60 19.23 67.60 18.00ZM69.08 17.46L69.08 17.96Q69.08 19.36 69.63 20.13Q70.17 20.90 71.15 20.90L71.15 20.90Q72.13 20.90 72.66 20.15Q73.19 19.40 73.19 17.96L73.19 17.96L73.19 17.51Q73.19 16.09 72.66 15.34Q72.12 14.58 71.14 14.58L71.14 14.58Q70.17 14.58 69.63 15.33Q69.09 16.09 69.08 17.46L69.08 17.46ZM84.49 22L79.14 22L79.14 13.47L80.62 13.47L80.62 20.82L84.49 20.82L84.49 22Z" fill="#FFFFFF"/><path class="svg__text" d="M117.47 22L110.73 22L110.73 13.60L117.32 13.60L117.32 15.44L113.08 15.44L113.08 16.85L116.82 16.85L116.82 18.63L113.08 18.63L113.08 20.17L117.47 20.17L117.47 22ZM124.47 22L122.28 22L122.28 13.60L124.23 13.60L127.19 18.45L130.07 13.60L132.02 13.60L132.04 22L129.86 22L129.84 17.55L127.68 21.17L126.62 21.17L124.47 17.67L124.47 22ZM139.59 22L137.21 22L137.21 13.60L141.05 13.60Q142.19 13.60 143.03 13.98Q143.87 14.35 144.33 15.06Q144.78 15.76 144.78 16.71L144.78 16.71Q144.78 17.66 144.33 18.35Q143.87 19.05 143.03 19.42Q142.19 19.80 141.05 19.80L141.05 19.80L139.59 19.80L139.59 22ZM139.59 15.47L139.59 17.93L140.90 17.93Q141.64 17.93 142.01 17.61Q142.38 17.29 142.38 16.71L142.38 16.71Q142.38 16.12 142.01 15.80Q141.64 15.47 140.90 15.47L140.90 15.47L139.59 15.47ZM155.92 22L149.53 22L149.53 13.60L151.91 13.60L151.91 20.11L155.92 20.11L155.92 22ZM167.08 22L160.34 22L160.34 13.60L166.93 13.60L166.93 15.44L162.69 15.44L162.69 16.85L166.43 16.85L166.43 18.63L162.69 18.63L162.69 20.17L167.08 20.17L167.08 22ZM173.31 22L170.88 22L174.59 13.60L176.93 13.60L180.65 22L178.18 22L177.52 20.37L173.97 20.37L173.31 22ZM175.74 15.93L174.66 18.61L176.82 18.61L175.74 15.93ZM188.77 22L184.80 22L184.80 13.60L188.77 13.60Q190.16 13.60 191.22 14.12Q192.29 14.63 192.88 15.58Q193.47 16.53 193.47 17.80L193.47 17.80Q193.47 19.07 192.88 20.02Q192.29 20.97 191.22 21.48Q190.16 22 188.77 22L188.77 22ZM187.18 15.50L187.18 20.10L188.68 20.10Q189.76 20.10 190.41 19.49Q191.07 18.88 191.07 17.80L191.07 17.80Q191.07 16.72 190.41 16.11Q189.76 15.50 188.68 15.50L188.68 15.50L187.18 15.50ZM197.77 17.80L197.77 17.80Q197.77 16.55 198.37 15.55Q198.98 14.56 200.04 14.00Q201.10 13.43 202.43 13.43L202.43 13.43Q203.76 13.43 204.83 14.00Q205.89 14.56 206.50 15.55Q207.10 16.55 207.10 17.80L207.10 17.80Q207.10 19.05 206.50 20.04Q205.89 21.04 204.83 21.60Q203.77 22.17 202.43 22.17L202.43 22.17Q201.10 22.17 200.04 21.60Q198.98 21.04 198.37 20.04Q197.77 19.05 197.77 17.80ZM200.17 17.80L200.17 17.80Q200.17 18.51 200.47 19.05Q200.77 19.60 201.28 19.90Q201.80 20.20 202.43 20.20L202.43 20.20Q203.07 20.20 203.59 19.90Q204.10 19.60 204.40 19.05Q204.70 18.51 204.70 17.80L204.70 17.80Q204.70 17.09 204.40 16.54Q204.10 16 203.59 15.70Q203.07 15.40 202.43 15.40L202.43 15.40Q201.79 15.40 201.28 15.70Q200.77 16 200.47 16.54Q200.17 17.09 200.17 17.80ZM211.25 21.24L211.25 21.24L212.02 19.49Q212.59 19.86 213.33 20.09Q214.08 20.32 214.80 20.32L214.80 20.32Q216.16 20.32 216.17 19.64L216.17 19.64Q216.17 19.28 215.78 19.11Q215.39 18.93 214.52 18.74L214.52 18.74Q213.57 18.53 212.94 18.30Q212.30 18.06 211.85 17.55Q211.39 17.03 211.39 16.16L211.39 16.16Q211.39 15.39 211.81 14.77Q212.23 14.15 213.06 13.79Q213.90 13.43 215.11 13.43L215.11 13.43Q215.93 13.43 216.74 13.62Q217.54 13.80 218.16 14.17L218.16 14.17L217.43 15.93Q216.23 15.28 215.10 15.28L215.10 15.28Q214.39 15.28 214.06 15.49Q213.74 15.70 213.74 16.04L213.74 16.04Q213.74 16.37 214.13 16.54Q214.51 16.71 215.36 16.89L215.36 16.89Q216.32 17.10 216.95 17.33Q217.58 17.56 218.04 18.07Q218.51 18.58 218.51 19.46L218.51 19.46Q218.51 20.21 218.09 20.83Q217.67 21.44 216.83 21.80Q215.99 22.17 214.78 22.17L214.78 22.17Q213.76 22.17 212.80 21.92Q211.84 21.67 211.25 21.24Z" fill="#FFFFFF" x="109.53999999999999"/></svg>